# xmcd
#
# Track frame offsets:
#	150
#	13253
#	29850
#	44689
#	62107
#	78376
#	92330
#	104047
#	120979
#	139794
#	149209
#	164865
#	181714
#
# Disc length: 2610 seconds
#
# Revision: 1
# Processed by: cddbd v1.5.2PL0 Copyright (c) Steve Scherf et al.
# Submitted via: audiograbber 1.83.01
#
DISCID=c30a300d
DTITLE=Terry Davidson and The Gears - Sonic Soul Sessions
DYEAR=2013
DGENRE=
TTITLE0=Sweet Deceiver
TTITLE1=Nasty Girl
TTITLE2=Chicagoland
TTITLE3=Too Late To Change
TTITLE4=So Hot
TTITLE5=Hound Dog Blues
TTITLE6=Tapped out
TTITLE7=Stomping Ground
TTITLE8=Deep In The Blues
TTITLE9=Three Ninetty Six
TTITLE10=Monkey Hand
TTITLE11=Memphis Bones
TTITLE12=Without The Blues
EXTD=
EXTT0=
EXTT1=
EXTT2=
EXTT3=
EXTT4=
EXTT5=
EXTT6=
EXTT7=
EXTT8=
EXTT9=
EXTT10=
EXTT11=
EXTT12=
PLAYORDER=
